<?xml version="1.0" standalone="no"?>
<!DOCTYPE svg PUBLIC "-//W3C//DTD SVG 20010904//EN"
 "http://www.w3.org/TR/2001/REC-SVG-20010904/DTD/svg10.dtd">
<svg version="1.0" xmlns="http://www.w3.org/2000/svg"
 width="512.000000pt" height="512.000000pt" viewBox="0 0 512.000000 512.000000"
 preserveAspectRatio="xMidYMid meet">
<metadata>
Created by potrace 1.11, written by Peter Selinger 2001-2013
</metadata>
<g transform="translate(0.000000,512.000000) scale(0.100000,-0.100000)"
fill="#000000" stroke="none">
<path d="M3245 3693 c-390 -48 -610 -285 -592 -633 6 -111 29 -182 90 -273 79
-117 223 -206 482 -297 240 -85 358 -156 412 -247 24 -42 28 -58 28 -128 0
-69 -4 -86 -27 -126 -52 -88 -145 -127 -323 -136 -184 -9 -350 23 -522 102
l-71 33 -11 -27 c-23 -58 -101 -284 -99 -286 15 -13 119 -58 182 -79 126 -42
270 -67 416 -73 561 -23 870 208 846 632 -8 148 -45 254 -120 344 -88 105
-199 170 -473 277 -256 100 -341 153 -387 246 -65 130 -6 272 134 323 46 17
78 20 190 19 155 -1 279 -28 389 -84 35 -17 64 -30 65 -28 2 2 28 71 59 153
64 172 68 156 -47 204 -91 38 -207 68 -316 81 -80 9 -240 11 -305 3z"/>
<path d="M1808 2888 l-3 -763 -23 -68 c-45 -132 -134 -194 -298 -204 -112 -8
-210 16 -341 81 l-105 53 -60 -126 c-86 -180 -82 -167 -48 -191 50 -36 195
-100 277 -122 105 -29 399 -31 508 -5 234 58 386 207 447 438 22 83 22 96 25
877 l4 792 -190 0 -190 0 -3 -762z"/>
</g>
</svg>
